<mxfile host="app.diagrams.net" agent="Mozilla/5.0 (Windows NT 10.0; Win64; x64) AppleWebKit/537.36 (KHTML, like Gecko) Chrome/127.0.0.0 Safari/537.36 OPR/113.0.0.0" version="24.7.17">
  <diagram id="C5RBs43oDa-KdzZeNtuy" name="Page-1">
    <mxGraphModel dx="2480" dy="1382" grid="1" gridSize="10" guides="1" tooltips="1" connect="1" arrows="1" fold="1" page="1" pageScale="1" pageWidth="827" pageHeight="1169" math="0" shadow="0">
      <root>
        <mxCell id="WIyWlLk6GJQsqaUBKTNV-0" />
        <mxCell id="WIyWlLk6GJQsqaUBKTNV-1" parent="WIyWlLk6GJQsqaUBKTNV-0" />
        <mxCell id="Xf-THd13qWa3xfeVSWmY-1" value="Country" style="swimlane;fontStyle=1;align=center;verticalAlign=top;childLayout=stackLayout;horizontal=1;startSize=26;horizontalStack=0;resizeParent=1;resizeParentMax=0;resizeLast=0;collapsible=1;marginBottom=0;whiteSpace=wrap;html=1;" vertex="1" parent="WIyWlLk6GJQsqaUBKTNV-1">
          <mxGeometry x="100" y="300" width="160" height="140" as="geometry" />
        </mxCell>
        <mxCell id="Xf-THd13qWa3xfeVSWmY-2" value="+ shortName: string&lt;div&gt;+ fullName: ?string&lt;/div&gt;&lt;div&gt;+ isoAlpha2; string&lt;/div&gt;&lt;div&gt;+ isoAlpha3: string&lt;/div&gt;&lt;div&gt;+ isoNumeric: string&lt;/div&gt;&lt;div&gt;+ population: int&lt;/div&gt;&lt;div&gt;+ square: float&lt;/div&gt;" style="text;strokeColor=none;fillColor=none;align=left;verticalAlign=top;spacingLeft=4;spacingRight=4;overflow=hidden;rotatable=0;points=[[0,0.5],[1,0.5]];portConstraint=eastwest;whiteSpace=wrap;html=1;" vertex="1" parent="Xf-THd13qWa3xfeVSWmY-1">
          <mxGeometry y="26" width="160" height="114" as="geometry" />
        </mxCell>
        <mxCell id="Xf-THd13qWa3xfeVSWmY-5" value="CountryScenarios" style="swimlane;fontStyle=1;align=center;verticalAlign=top;childLayout=stackLayout;horizontal=1;startSize=26;horizontalStack=0;resizeParent=1;resizeParentMax=0;resizeLast=0;collapsible=1;marginBottom=0;whiteSpace=wrap;html=1;" vertex="1" parent="WIyWlLk6GJQsqaUBKTNV-1">
          <mxGeometry x="350" y="300" width="350" height="260" as="geometry" />
        </mxCell>
        <mxCell id="Xf-THd13qWa3xfeVSWmY-6" value="+ storage: CountryStorage" style="text;strokeColor=none;fillColor=none;align=left;verticalAlign=top;spacingLeft=4;spacingRight=4;overflow=hidden;rotatable=0;points=[[0,0.5],[1,0.5]];portConstraint=eastwest;whiteSpace=wrap;html=1;" vertex="1" parent="Xf-THd13qWa3xfeVSWmY-5">
          <mxGeometry y="26" width="350" height="26" as="geometry" />
        </mxCell>
        <mxCell id="Xf-THd13qWa3xfeVSWmY-7" value="" style="line;strokeWidth=1;fillColor=none;align=left;verticalAlign=middle;spacingTop=-1;spacingLeft=3;spacingRight=3;rotatable=0;labelPosition=right;points=[];portConstraint=eastwest;strokeColor=inherit;" vertex="1" parent="Xf-THd13qWa3xfeVSWmY-5">
          <mxGeometry y="52" width="350" height="8" as="geometry" />
        </mxCell>
        <mxCell id="Xf-THd13qWa3xfeVSWmY-8" value="+ construct(CountryStorage storage)&lt;div&gt;+ getAll(): array&lt;/div&gt;&lt;div&gt;+ get(string code): Country&lt;/div&gt;&lt;div&gt;+ store(Country country): void&lt;/div&gt;&lt;div&gt;+ edit(Country country,string code): void&lt;/div&gt;&lt;div&gt;+ delete(string $code): code&lt;/div&gt;&lt;div&gt;+ validateISOAlpha2(string code): bool&lt;/div&gt;&lt;div&gt;+ validateISOAlpha3(string code): bool&lt;/div&gt;&lt;div&gt;+ validateISONumeric(string code): bool&lt;br&gt;&lt;/div&gt;&lt;div&gt;+ isThisExsist(Country country): ?string&lt;/div&gt;&lt;div&gt;+ isCodesAreTheSame(string oldCode,string newCode): bool&lt;/div&gt;" style="text;strokeColor=none;fillColor=none;align=left;verticalAlign=top;spacingLeft=4;spacingRight=4;overflow=hidden;rotatable=0;points=[[0,0.5],[1,0.5]];portConstraint=eastwest;whiteSpace=wrap;html=1;" vertex="1" parent="Xf-THd13qWa3xfeVSWmY-5">
          <mxGeometry y="60" width="350" height="200" as="geometry" />
        </mxCell>
        <mxCell id="Xf-THd13qWa3xfeVSWmY-14" value="Use" style="endArrow=open;endSize=12;dashed=1;html=1;rounded=0;entryX=1;entryY=0.5;entryDx=0;entryDy=0;exitX=0;exitY=0.5;exitDx=0;exitDy=0;" edge="1" parent="WIyWlLk6GJQsqaUBKTNV-1" source="Xf-THd13qWa3xfeVSWmY-8" target="Xf-THd13qWa3xfeVSWmY-2">
          <mxGeometry x="-0.0022" width="160" relative="1" as="geometry">
            <mxPoint x="360" y="410" as="sourcePoint" />
            <mxPoint x="440" y="440" as="targetPoint" />
            <Array as="points">
              <mxPoint x="320" y="460" />
              <mxPoint x="320" y="383" />
            </Array>
            <mxPoint as="offset" />
          </mxGeometry>
        </mxCell>
        <mxCell id="Xf-THd13qWa3xfeVSWmY-18" value="" style="endArrow=diamondThin;endFill=0;endSize=24;html=1;rounded=0;exitX=0.5;exitY=0;exitDx=0;exitDy=0;" edge="1" parent="WIyWlLk6GJQsqaUBKTNV-1" source="Xf-THd13qWa3xfeVSWmY-29">
          <mxGeometry width="160" relative="1" as="geometry">
            <mxPoint x="525" y="690" as="sourcePoint" />
            <mxPoint x="523" y="562" as="targetPoint" />
            <Array as="points" />
          </mxGeometry>
        </mxCell>
        <mxCell id="Xf-THd13qWa3xfeVSWmY-29" value="«interface»&lt;div style=&quot;font-weight: 700;&quot;&gt;&lt;b&gt;CountryRepository&lt;/b&gt;&lt;/div&gt;" style="html=1;whiteSpace=wrap;" vertex="1" parent="WIyWlLk6GJQsqaUBKTNV-1">
          <mxGeometry x="430" y="700" width="190" height="50" as="geometry" />
        </mxCell>
        <mxCell id="Xf-THd13qWa3xfeVSWmY-31" value="CountryStorage" style="swimlane;fontStyle=1;align=center;verticalAlign=top;childLayout=stackLayout;horizontal=1;startSize=26;horizontalStack=0;resizeParent=1;resizeParentMax=0;resizeLast=0;collapsible=1;marginBottom=0;whiteSpace=wrap;html=1;" vertex="1" parent="WIyWlLk6GJQsqaUBKTNV-1">
          <mxGeometry x="335" y="860" width="380" height="260" as="geometry" />
        </mxCell>
        <mxCell id="Xf-THd13qWa3xfeVSWmY-32" value="-- sqlHelper: SqlHelper" style="text;strokeColor=none;fillColor=none;align=left;verticalAlign=top;spacingLeft=4;spacingRight=4;overflow=hidden;rotatable=0;points=[[0,0.5],[1,0.5]];portConstraint=eastwest;whiteSpace=wrap;html=1;" vertex="1" parent="Xf-THd13qWa3xfeVSWmY-31">
          <mxGeometry y="26" width="380" height="26" as="geometry" />
        </mxCell>
        <mxCell id="Xf-THd13qWa3xfeVSWmY-33" value="" style="line;strokeWidth=1;fillColor=none;align=left;verticalAlign=middle;spacingTop=-1;spacingLeft=3;spacingRight=3;rotatable=0;labelPosition=right;points=[];portConstraint=eastwest;strokeColor=inherit;" vertex="1" parent="Xf-THd13qWa3xfeVSWmY-31">
          <mxGeometry y="52" width="380" height="8" as="geometry" />
        </mxCell>
        <mxCell id="Xf-THd13qWa3xfeVSWmY-34" value="+ construct(SqlHelper sqlHelper)&lt;div&gt;+ getAll(): array&lt;/div&gt;&lt;div&gt;+ getByAlpha2(String code): ?Country&lt;/div&gt;&lt;div&gt;+&amp;nbsp;&lt;span style=&quot;background-color: initial;&quot;&gt;getByAlpha3(String code): ?Country&lt;/span&gt;&lt;/div&gt;&lt;div&gt;&lt;span style=&quot;background-color: initial;&quot;&gt;+&amp;nbsp;&lt;/span&gt;&lt;span style=&quot;background-color: initial;&quot;&gt;getByNumeric(String code): ?Country&lt;/span&gt;&lt;/div&gt;&lt;div&gt;&lt;span style=&quot;background-color: initial;&quot;&gt;+ store(Country country): void&lt;/span&gt;&lt;/div&gt;&lt;div&gt;&lt;span style=&quot;background-color: initial;&quot;&gt;+ editAlpha2(Country country,string code): void&lt;/span&gt;&lt;/div&gt;&lt;div&gt;&lt;span style=&quot;background-color: initial;&quot;&gt;+&amp;nbsp;&lt;/span&gt;&lt;span style=&quot;background-color: initial;&quot;&gt;editAlpha3(Country country,string code): void&lt;/span&gt;&lt;/div&gt;&lt;div&gt;&lt;span style=&quot;background-color: initial;&quot;&gt;+&amp;nbsp;&lt;/span&gt;&lt;span style=&quot;background-color: initial;&quot;&gt;editNumeric(Country country,string code): void&lt;/span&gt;&lt;/div&gt;&lt;div&gt;&lt;span style=&quot;background-color: initial;&quot;&gt;+ deleteAlpha2(string code): void&lt;/span&gt;&lt;/div&gt;&lt;div&gt;&lt;span style=&quot;background-color: initial;&quot;&gt;+&amp;nbsp;&lt;/span&gt;&lt;span style=&quot;background-color: initial;&quot;&gt;deleteAlpha3(string code): void&lt;/span&gt;&lt;/div&gt;&lt;div&gt;&lt;span style=&quot;background-color: initial;&quot;&gt;+&amp;nbsp;&lt;/span&gt;&lt;span style=&quot;background-color: initial;&quot;&gt;deleteNumeric(string code): void&lt;/span&gt;&lt;/div&gt;" style="text;strokeColor=none;fillColor=none;align=left;verticalAlign=top;spacingLeft=4;spacingRight=4;overflow=hidden;rotatable=0;points=[[0,0.5],[1,0.5]];portConstraint=eastwest;whiteSpace=wrap;html=1;" vertex="1" parent="Xf-THd13qWa3xfeVSWmY-31">
          <mxGeometry y="60" width="380" height="200" as="geometry" />
        </mxCell>
        <mxCell id="Xf-THd13qWa3xfeVSWmY-35" value="" style="endArrow=block;dashed=1;endFill=0;endSize=12;html=1;rounded=0;entryX=0.5;entryY=1;entryDx=0;entryDy=0;exitX=0.5;exitY=0;exitDx=0;exitDy=0;" edge="1" parent="WIyWlLk6GJQsqaUBKTNV-1" source="Xf-THd13qWa3xfeVSWmY-31" target="Xf-THd13qWa3xfeVSWmY-29">
          <mxGeometry width="160" relative="1" as="geometry">
            <mxPoint x="540" y="820" as="sourcePoint" />
            <mxPoint x="490" y="930" as="targetPoint" />
          </mxGeometry>
        </mxCell>
        <mxCell id="Xf-THd13qWa3xfeVSWmY-36" value="SqlHelper" style="swimlane;fontStyle=1;align=center;verticalAlign=top;childLayout=stackLayout;horizontal=1;startSize=26;horizontalStack=0;resizeParent=1;resizeParentMax=0;resizeLast=0;collapsible=1;marginBottom=0;whiteSpace=wrap;html=1;" vertex="1" parent="WIyWlLk6GJQsqaUBKTNV-1">
          <mxGeometry x="350" y="1240" width="340" height="80" as="geometry" />
        </mxCell>
        <mxCell id="Xf-THd13qWa3xfeVSWmY-39" value="+ construct()&lt;div&gt;- pingDB(): void&lt;/div&gt;&lt;div&gt;+ openDbConnection(): mysqli&lt;/div&gt;" style="text;strokeColor=none;fillColor=none;align=left;verticalAlign=top;spacingLeft=4;spacingRight=4;overflow=hidden;rotatable=0;points=[[0,0.5],[1,0.5]];portConstraint=eastwest;whiteSpace=wrap;html=1;" vertex="1" parent="Xf-THd13qWa3xfeVSWmY-36">
          <mxGeometry y="26" width="340" height="54" as="geometry" />
        </mxCell>
        <mxCell id="Xf-THd13qWa3xfeVSWmY-40" value="" style="endArrow=diamondThin;endFill=0;endSize=24;html=1;rounded=0;exitX=0.5;exitY=0;exitDx=0;exitDy=0;entryX=0.482;entryY=1.005;entryDx=0;entryDy=0;entryPerimeter=0;" edge="1" parent="WIyWlLk6GJQsqaUBKTNV-1" source="Xf-THd13qWa3xfeVSWmY-36" target="Xf-THd13qWa3xfeVSWmY-34">
          <mxGeometry width="160" relative="1" as="geometry">
            <mxPoint x="330" y="1280" as="sourcePoint" />
            <mxPoint x="520" y="1130" as="targetPoint" />
          </mxGeometry>
        </mxCell>
        <mxCell id="Xf-THd13qWa3xfeVSWmY-41" value="CodeCollisionException&lt;div&gt;CountryNotFoundException&lt;/div&gt;&lt;div&gt;DuplicatedCodeException&lt;/div&gt;&lt;div&gt;ErrorCodeException&lt;/div&gt;&lt;div&gt;InvalidISOCodeException&lt;/div&gt;&lt;div&gt;IvalidValueException&lt;/div&gt;" style="html=1;whiteSpace=wrap;" vertex="1" parent="WIyWlLk6GJQsqaUBKTNV-1">
          <mxGeometry x="850" y="372.5" width="200" height="115" as="geometry" />
        </mxCell>
        <mxCell id="Xf-THd13qWa3xfeVSWmY-42" value="Use" style="endArrow=open;endSize=12;dashed=1;html=1;rounded=0;entryX=0;entryY=0.5;entryDx=0;entryDy=0;exitX=1;exitY=0.5;exitDx=0;exitDy=0;" edge="1" parent="WIyWlLk6GJQsqaUBKTNV-1" source="Xf-THd13qWa3xfeVSWmY-8" target="Xf-THd13qWa3xfeVSWmY-41">
          <mxGeometry x="0.0009" width="160" relative="1" as="geometry">
            <mxPoint x="650" y="520" as="sourcePoint" />
            <mxPoint x="810" y="520" as="targetPoint" />
            <Array as="points">
              <mxPoint x="780" y="460" />
              <mxPoint x="780" y="430" />
            </Array>
            <mxPoint as="offset" />
          </mxGeometry>
        </mxCell>
        <mxCell id="Xf-THd13qWa3xfeVSWmY-43" value="Use" style="endArrow=open;endSize=12;dashed=1;html=1;rounded=0;exitX=0;exitY=0.5;exitDx=0;exitDy=0;entryX=0.488;entryY=1.008;entryDx=0;entryDy=0;entryPerimeter=0;" edge="1" parent="WIyWlLk6GJQsqaUBKTNV-1" source="Xf-THd13qWa3xfeVSWmY-29" target="Xf-THd13qWa3xfeVSWmY-2">
          <mxGeometry width="160" relative="1" as="geometry">
            <mxPoint x="220" y="660" as="sourcePoint" />
            <mxPoint x="380" y="660" as="targetPoint" />
            <Array as="points">
              <mxPoint x="180" y="725" />
            </Array>
          </mxGeometry>
        </mxCell>
        <mxCell id="Xf-THd13qWa3xfeVSWmY-44" value="CountryController" style="swimlane;fontStyle=1;align=center;verticalAlign=top;childLayout=stackLayout;horizontal=1;startSize=26;horizontalStack=0;resizeParent=1;resizeParentMax=0;resizeLast=0;collapsible=1;marginBottom=0;whiteSpace=wrap;html=1;" vertex="1" parent="WIyWlLk6GJQsqaUBKTNV-1">
          <mxGeometry x="370" y="50" width="310" height="180" as="geometry" />
        </mxCell>
        <mxCell id="Xf-THd13qWa3xfeVSWmY-45" value="-- countries: CountryScenarios&amp;nbsp;" style="text;strokeColor=none;fillColor=none;align=left;verticalAlign=top;spacingLeft=4;spacingRight=4;overflow=hidden;rotatable=0;points=[[0,0.5],[1,0.5]];portConstraint=eastwest;whiteSpace=wrap;html=1;" vertex="1" parent="Xf-THd13qWa3xfeVSWmY-44">
          <mxGeometry y="26" width="310" height="26" as="geometry" />
        </mxCell>
        <mxCell id="Xf-THd13qWa3xfeVSWmY-46" value="" style="line;strokeWidth=1;fillColor=none;align=left;verticalAlign=middle;spacingTop=-1;spacingLeft=3;spacingRight=3;rotatable=0;labelPosition=right;points=[];portConstraint=eastwest;strokeColor=inherit;" vertex="1" parent="Xf-THd13qWa3xfeVSWmY-44">
          <mxGeometry y="52" width="310" height="8" as="geometry" />
        </mxCell>
        <mxCell id="Xf-THd13qWa3xfeVSWmY-47" value="+ construct(CountryScenarios Countries)&lt;div&gt;+ getAll(): JsonResponse&lt;/div&gt;&lt;div&gt;+ get(string code): JsonResponse&lt;/div&gt;&lt;div&gt;+ add(Country country): JsonResponse&lt;/div&gt;&lt;div&gt;+ edit(string code,Country country): JsonResponse&lt;/div&gt;&lt;div&gt;+ delete(string code): JsonResponse&lt;/div&gt;&lt;div&gt;+ buildErrorResponse(Exception ex): JsonResponse&lt;/div&gt;" style="text;strokeColor=none;fillColor=none;align=left;verticalAlign=top;spacingLeft=4;spacingRight=4;overflow=hidden;rotatable=0;points=[[0,0.5],[1,0.5]];portConstraint=eastwest;whiteSpace=wrap;html=1;" vertex="1" parent="Xf-THd13qWa3xfeVSWmY-44">
          <mxGeometry y="60" width="310" height="120" as="geometry" />
        </mxCell>
        <mxCell id="Xf-THd13qWa3xfeVSWmY-48" value="" style="endArrow=diamondThin;endFill=0;endSize=24;html=1;rounded=0;entryX=0.502;entryY=0.99;entryDx=0;entryDy=0;entryPerimeter=0;exitX=0.5;exitY=0;exitDx=0;exitDy=0;" edge="1" parent="WIyWlLk6GJQsqaUBKTNV-1" source="Xf-THd13qWa3xfeVSWmY-5" target="Xf-THd13qWa3xfeVSWmY-47">
          <mxGeometry width="160" relative="1" as="geometry">
            <mxPoint x="460" y="270" as="sourcePoint" />
            <mxPoint x="620" y="270" as="targetPoint" />
          </mxGeometry>
        </mxCell>
        <mxCell id="Xf-THd13qWa3xfeVSWmY-49" value="RootController" style="swimlane;fontStyle=1;align=center;verticalAlign=top;childLayout=stackLayout;horizontal=1;startSize=26;horizontalStack=0;resizeParent=1;resizeParentMax=0;resizeLast=0;collapsible=1;marginBottom=0;whiteSpace=wrap;html=1;" vertex="1" parent="WIyWlLk6GJQsqaUBKTNV-1">
          <mxGeometry x="827" y="50" width="270" height="90" as="geometry" />
        </mxCell>
        <mxCell id="Xf-THd13qWa3xfeVSWmY-52" value="+ index(Request request): JsonRespons&lt;div&gt;+ ping(): JsonResponse&lt;/div&gt;&lt;div&gt;+ valtest(): JsonResponse&lt;/div&gt;" style="text;strokeColor=none;fillColor=none;align=left;verticalAlign=top;spacingLeft=4;spacingRight=4;overflow=hidden;rotatable=0;points=[[0,0.5],[1,0.5]];portConstraint=eastwest;whiteSpace=wrap;html=1;" vertex="1" parent="Xf-THd13qWa3xfeVSWmY-49">
          <mxGeometry y="26" width="270" height="64" as="geometry" />
        </mxCell>
      </root>
    </mxGraphModel>
  </diagram>
</mxfile>
